<svg xmlns="http://www.w3.org/2000/svg" width="911.437" height="911.437" viewBox="0 0 241.151 241.151"><g transform="translate(1730.986 900.345)"><rect width="1826.508" height="1048.657" x="-647.328" y="-488.012" rx="1.875" ry="1.875" fill="#e2e2e2" fill-rule="evenodd"/><g transform="translate(-41.588 -242.518)"><circle cx="-376.41" cy="259.573" r="110.576" fill="#53656b" fill-rule="evenodd" stroke="#fff" stroke-width="20" stroke-linecap="round" stroke-linejoin="bevel"/><g transform="matrix(.8148 0 0 .8148 916.94 732.81)" fill="#fff" stroke-width="1.227" fill-rule="evenodd"><circle cx="-1645.733" cy="-643.032" r="18.545"/><path d="M-1653.484-618.609a14.813 14.813 0 00-14.846 14.846v39.387a8.324 8.324 0 008.343 8.342h3.198v50.197a6.022 6.022 0 006.036 6.035h12.372a6.022 6.022 0 006.035-6.035v-50.197h3.199a8.324 8.324 0 008.342-8.342v-39.387a14.814 14.814 0 00-14.846-14.846z"/></g><g transform="matrix(.8148 0 0 .8148 944.739 732.81)" fill="#fff" stroke-width="1.227" fill-rule="evenodd"><circle cx="-1562.338" cy="-643.245" r="18.545"/><path d="M-1570.088-618.82a14.813 14.813 0 00-14.846 14.845v31.258l-12.592 23.493a4.91 4.91 0 004.328 7.23h19.805v35.944a6.022 6.022 0 006.036 6.036h12.372a6.022 6.022 0 006.035-6.036v-35.945h19.806a4.91 4.91 0 004.327-7.229l-12.592-23.493V-603.974a14.814 14.814 0 00-14.847-14.847z"/></g><path d="M-375.19 201.245V317.9" fill="#e2e2e2" stroke="#fff" stroke-width="15" stroke-linecap="round" stroke-linejoin="bevel"/></g><g transform="translate(5.092 -242.518)"><circle cx="-81.128" cy="259.573" r="110.576" fill="#53656b" fill-rule="evenodd" stroke="#fff" stroke-width="20" stroke-linecap="round" stroke-linejoin="bevel"/><g transform="matrix(.8148 0 0 .8148 1238.064 732.81)" fill="#fff" stroke-width="1.227" fill-rule="evenodd"><circle cx="-1645.733" cy="-643.032" r="18.545"/><path d="M-1653.484-618.609a14.813 14.813 0 00-14.846 14.846v39.387a8.324 8.324 0 008.343 8.342h3.198v50.197a6.022 6.022 0 006.036 6.035h12.372a6.022 6.022 0 006.035-6.035v-50.197h3.199a8.324 8.324 0 008.342-8.342v-39.387a14.814 14.814 0 00-14.846-14.846z"/></g><path d="M-54.066 201.245V317.9" fill="#e2e2e2" stroke="#fff" stroke-width="15" stroke-linecap="round" stroke-linejoin="bevel"/></g><g transform="translate(48.407 -242.518)"><circle cx="217.519" cy="259.573" r="110.576" fill="#53656b" fill-rule="evenodd" stroke="#fff" stroke-width="20" stroke-linecap="round" stroke-linejoin="bevel"/><path d="M244.58 201.245V317.9" fill="#e2e2e2" stroke="#fff" stroke-width="15" stroke-linecap="round" stroke-linejoin="bevel"/><g transform="matrix(.8148 0 0 .8148 1468.76 732.982)" fill="#fff" stroke-width="1.227" fill-rule="evenodd"><circle cx="-1562.338" cy="-643.245" r="18.545"/><path d="M-1570.088-618.82a14.813 14.813 0 00-14.846 14.845v31.258l-12.592 23.493a4.91 4.91 0 004.328 7.23h19.805v35.944a6.022 6.022 0 006.036 6.036h12.372a6.022 6.022 0 006.035-6.036v-35.945h19.806a4.91 4.91 0 004.327-7.229l-12.592-23.493V-603.974a14.814 14.814 0 00-14.847-14.847z"/></g></g><g transform="translate(-18.675)" stroke="#fff" stroke-linecap="round" stroke-linejoin="bevel"><circle cx="-57.361" cy="-295.951" r="110.576" fill="#53656b" fill-rule="evenodd" stroke-width="20"/><path d="M-118.222-278.95l24.469 24.745 24.467-24.745M-93.753-254.205v-83.493M-45.062-312.953l24.468-24.745 24.468 24.745M-20.594-337.698v83.493" fill="none" stroke-width="15"/></g><g fill-rule="evenodd"><circle cx="-417.998" cy="-295.951" r="110.576" fill="#53656b" stroke="#fff" stroke-width="20" stroke-linecap="round" stroke-linejoin="bevel"/><path d="M-408.212-345.313v31.497h-31.496v31.496h-31.496v31.497h94.489v-94.49z" fill="#fff"/></g><g transform="translate(-53.562)" stroke="#fff" stroke-linecap="round"><circle cx="319.488" cy="-295.951" r="110.576" fill="#53656b" fill-rule="evenodd" stroke-width="20" stroke-linejoin="bevel"/><path d="M364.081-271.483l24.746-24.469-24.746-24.467M388.827-295.952h-63.03" fill="none" stroke-width="15" stroke-linejoin="bevel"/><path d="M349.081-351.383h-68.517v110.863h68.517" fill="none" stroke-width="15" stroke-linejoin="round"/></g><g transform="translate(-56.876)" stroke="#fff" stroke-linecap="round"><circle cx="664.764" cy="-295.951" r="110.576" fill="#53656b" fill-rule="evenodd" stroke-width="20" stroke-linejoin="bevel"/><path d="M640.168-271.483l24.745-24.469-24.745-24.467M664.913-295.952h-63.03" fill="none" stroke-width="15" stroke-linejoin="bevel"/><path d="M641.629-351.383h68.517v110.863h-68.517" fill="none" stroke-width="15" stroke-linejoin="round"/></g><g transform="translate(-53.569)"><circle cx="1003.418" cy="-295.951" r="110.576" fill="#53656b" fill-rule="evenodd" stroke="#fff" stroke-width="20" stroke-linecap="round" stroke-linejoin="bevel"/><path d="M1012.594-350.527h-68.517v110.863h68.517" fill="none" stroke="#fff" stroke-width="15" stroke-linecap="round" stroke-linejoin="round"/><path d="M1077.095-338.993c0 8.346-6.765 15.111-15.11 15.111-8.346 0-15.111-6.765-15.111-15.11 0-8.346 6.765-15.112 15.11-15.112 8.346 0 15.111 6.766 15.111 15.111zM1015.793-331.26h-.157a7.5 7.5 0 00-4.514 1.597l-15.674 12.292a7.5 7.5 0 009.256 11.802l13.636-10.691h6.506l-21.184 35.205H985.97a7.5 7.5 0 100 15h20.793c3.176-.135 6.464-1.594 7.873-3.957l5.728-10.06 13.54 16.19-.073 17.038a7.5 7.5 0 1015 .062l.084-19.765c.007-1.727-.84-3.635-1.746-4.854l-7.217-8.63 10.62-16.497 4.455 7.369.005.008.04.065a7.5 7.5 0 009.712 2.857l13.188-6.451a7.5 7.5 0 00-6.59-13.475l-7.025 3.437-8.085-13.373c-2.358-4.971-7.368-8.624-11.438-12.569-.886-.858-1.865-1.477-2.89-1.867a7.5 7.5 0 00-3.234-.733h-22.918z" fill="#fff" fill-rule="evenodd"/></g><rect width="1826.508" height="1048.657" x="1400.768" y="-1406.417" rx="1.875" ry="1.875" fill="#e2e2e2" fill-rule="evenodd"/><circle cx="1779.887" cy="-705.614" r="110.576" fill="#53656b" fill-rule="evenodd" stroke="#fff" stroke-width="20" stroke-linecap="round" stroke-linejoin="bevel"/><g fill="#fff" color="#000" font-weight="400" font-family="sans-serif" fill-rule="evenodd" paint-order="stroke markers fill"><path style="line-height:normal;font-variant-ligatures:normal;font-variant-position:normal;font-variant-caps:normal;font-variant-numeric:normal;font-variant-alternates:normal;font-variant-east-asian:normal;font-feature-settings:normal;font-variation-settings:normal;text-indent:0;text-align:start;text-decoration-line:none;text-decoration-style:solid;text-decoration-color:#000;text-transform:none;text-orientation:mixed;white-space:normal;shape-padding:0;shape-margin:0;inline-size:0;isolation:auto;mix-blend-mode:normal;solid-color:#000;solid-opacity:1" d="M1800.543-757.788c-1.665 0-3.082 1.42-3.082 3.084v21.754h-21.754c-1.665 0-3.084 1.417-3.084 3.082v21.754h-21.754c-1.664 0-3.082 1.418-3.082 3.084v21.753h-21.756c-1.664 0-3.082 1.418-3.082 3.082v23.672c0 1.665 1.418 3.084 3.082 3.084h98.184c1.664 0 3.084-1.42 3.084-3.084v-98.181c0-1.665-1.419-3.084-3.084-3.084z" overflow="visible"/><path style="line-height:normal;font-variant-ligatures:normal;font-variant-position:normal;font-variant-caps:normal;font-variant-numeric:normal;font-variant-alternates:normal;font-variant-east-asian:normal;font-feature-settings:normal;font-variation-settings:normal;text-indent:0;text-align:start;text-decoration-line:none;text-decoration-style:solid;text-decoration-color:#000;text-transform:none;text-orientation:mixed;white-space:normal;shape-padding:0;shape-margin:0;inline-size:0;isolation:auto;mix-blend-mode:normal;solid-color:#000;solid-opacity:1" d="M1800.544-755.288a.582.582 0 00-.583.583v24.254h-24.254a.582.582 0 00-.583.583v24.254h-24.255a.582.582 0 00-.582.583v24.255h-24.255a.581.581 0 00-.583.582v23.672c0 .323.26.583.583.583h98.184c.323 0 .582-.26.582-.583v-98.183a.582.582 0 00-.582-.583z" overflow="visible"/></g><circle cx="2067.801" cy="-705.614" r="110.576" fill="#53656b" fill-rule="evenodd" stroke="#fff" stroke-width="20" stroke-linecap="round" stroke-linejoin="bevel"/><path d="M2079.039-750.57v22.455h-22.476v22.455h-22.475v22.456h-22.476v22.455h22.476v.092h22.475v-22.64h22.476v-22.455h22.475v-22.363h22.476v-22.455h-22.476z" fill="#fff" fill-rule="evenodd" stroke="#000" stroke-width=".5" stroke-opacity=".489"/><circle cx="2375.107" cy="-969.174" r="110.576" fill="#53656b" fill-rule="evenodd" stroke="#fff" stroke-width="20" stroke-linecap="round" stroke-linejoin="bevel"/><path d="M2321.522-1026.163l53.028 22.597v113.978l-53.028-22.597z" fill="none" stroke="#fff" stroke-width="15" stroke-linecap="round" stroke-linejoin="round"/><path d="M2321.522-1026.163h88.194v28.24m0 57.5v28.238h-35.166" fill="none" stroke="#fff" stroke-width="15" stroke-linecap="round" stroke-linejoin="round"/><path d="M2434.218-993.642l24.745 24.468-24.745 24.468M2458.963-969.174h-57.824" fill="none" stroke="#fff" stroke-width="15" stroke-linecap="round" stroke-linejoin="bevel"/><circle cx="2377.224" cy="-696.582" r="110.576" fill="#53656b" fill-rule="evenodd" stroke="#fff" stroke-width="20" stroke-linecap="round" stroke-linejoin="bevel"/><path d="M2321.522-753.571l53.028 22.597v113.978l-53.028-22.597z" fill="none" stroke="#fff" stroke-width="15" stroke-linecap="round" stroke-linejoin="round"/><path d="M2321.522-753.571h88.194v12.907m0 88.164v12.907h-35.166" fill="none" stroke="#fff" stroke-width="15" stroke-linecap="round" stroke-linejoin="round"/><path d="M2425.885-721.05l-24.746 24.468 24.746 24.468M2401.14-696.582h57.823" fill="none" stroke="#fff" stroke-width="15" stroke-linecap="round" stroke-linejoin="bevel"/><circle cx="2708.144" cy="-684.349" r="110.576" fill="#53656b" fill-rule="evenodd" stroke="#fff" stroke-width="20" stroke-linecap="round" stroke-linejoin="bevel"/><path d="M2775.433-731.314a15.11 15.11 0 01-15.11 15.11 15.11 15.11 0 01-15.111-15.11 15.11 15.11 0 0115.11-15.11 15.11 15.11 0 0115.111 15.11zM2743.18-719.39a12.07 12.07 0 00-16.525 4.429l-3.924 6.796-8.601 14.898-3.52 6.098a6.782 6.782 0 002.487 9.285l2.257 1.304 17.248 9.958 2.257 1.303a6.782 6.782 0 009.285-2.488l3.521-6.099 8.602-14.898 3.923-6.796a12.07 12.07 0 00-4.427-16.525z" fill="#fff" fill-rule="evenodd"/><path d="M2716.702-681.734l29.69 27.04M2677.316-659.635h26.15M2746.392-654.693l-.104 27.933M2703.466-659.635l13.076-22.647M2737.895-713.52h-26.151M2711.744-713.52l-17.794 12.475M2753.465-704.512l10.16 24.096M2763.625-680.416l16.13 6.812" fill="#e2e2e2" stroke="#fff" stroke-width="15" stroke-linecap="round" stroke-linejoin="bevel"/><g transform="translate(44.59 -242.518)"><circle cx="563.298" cy="259.573" r="110.576" fill="#53656b" fill-rule="evenodd" stroke="#fff" stroke-width="20" stroke-linecap="round" stroke-linejoin="bevel"/><g style="line-height:1.25;-inkscape-font-specification:'Fira Sans, Semi-Bold';font-variant-ligatures:normal;font-variant-caps:normal;font-variant-numeric:normal;font-variant-east-asian:normal"><path d="M567.293 195.623h-40.637v131.404h27.914v-44.814h15.002c30.003 0 51.65-13.862 51.65-44.245 0-28.673-20.508-42.345-53.929-42.345zm0 66.082H554.57V215.75h12.343c16.33 0 25.446 6.836 25.446 22.217 0 17.85-9.685 23.737-25.066 23.737z" style="-inkscape-font-specification:'Fira Sans, Semi-Bold';font-variant-ligatures:normal;font-variant-caps:normal;font-variant-numeric:normal;font-variant-east-asian:normal" aria-label="P" font-weight="600" font-size="189.891" font-family="Fira Sans" letter-spacing="0" word-spacing="0" fill="#fff" stroke-width=".265"/></g></g><path d="M2717.32-738.925h-68.518v110.863h68.517" fill="none" stroke="#fff" stroke-width="15" stroke-linecap="round" stroke-linejoin="round"/><circle cx="2708.144" cy="-1001.548" r="110.576" fill="#53656b" fill-rule="evenodd" stroke="#fff" stroke-width="20" stroke-linecap="round" stroke-linejoin="bevel"/><path d="M2717.32-1056.124h-68.518v110.863h68.517" fill="none" stroke="#fff" stroke-width="15" stroke-linecap="round" stroke-linejoin="round"/><path d="M2775.768-1049.324c0 8.346-6.765 15.111-15.11 15.111-8.346 0-15.111-6.765-15.111-15.11 0-8.346 6.765-15.111 15.11-15.111 8.346 0 15.111 6.765 15.111 15.11zM2746.384-1037.399c-4.615-3.35-10.475-1.376-13.14 4.428l-3.12 6.796-6.84 14.898-2.8 6.099c-1.496 3.26-.614 7.402 1.979 9.285l1.795 1.303 13.715 9.959 1.795 1.303c2.593 1.882 5.886.772 7.383-2.489l2.8-6.098 6.839-14.898 3.12-6.796c2.664-5.804 1.094-13.174-3.52-16.525z" fill="#fff" fill-rule="evenodd"/><path d="M2726.41-998.459l22.623 26.412M2695.087-977.107h20.794M2749.033-972.047l-.083 19.778M2715.88-977.107l11.07-24.26M2741.8-1031.4h-20.793M2721.007-1031.4l-14.15 12.476M2753.714-1022.652l8.079 24.096M2761.793-998.556l12.827 6.812" fill="#e2e2e2" stroke="#fff" stroke-width="15" stroke-linecap="round" stroke-linejoin="bevel"/><circle cx="2949.295" cy="-1242.699" r="110.576" fill="#53656b" fill-rule="evenodd" stroke="#fff" stroke-width="20" stroke-linecap="round" stroke-linejoin="bevel"/><path d="M2958.47-1297.275h-68.516v110.863h68.516" fill="none" stroke="#fff" stroke-width="15" stroke-linecap="round" stroke-linejoin="round"/><g><path d="M3022.972-1285.74c0 8.345-6.766 15.11-15.111 15.11s-15.11-6.765-15.11-15.11c0-8.346 6.764-15.112 15.11-15.112 8.345 0 15.11 6.766 15.11 15.111zM2990.71-1275.407c-4.096-3.968-10.176-2.84-13.633 2.53l-4.048 6.288-8.874 13.783-3.632 5.642c-1.942 3.018-1.654 7.242.648 9.472l1.593 1.543 12.172 11.795 1.593 1.543c2.301 2.23 5.718 1.596 7.66-1.421l3.633-5.643 8.873-13.783 4.048-6.288c3.457-5.37 2.943-12.888-1.153-16.856z" fill="#fff" fill-rule="evenodd"/><path d="M2967.03-1237.567l20.26 24.23M2931.845-1220.303h20.794M2987.29-1213.337l-.082 19.777M2953.994-1220.47l13.197-23.172M2984.587-1270.508h-22.96M2961.627-1270.508l-15.675 12.291M2994.864-1260.391l12.5 20.678M3007.365-1239.713l13.188-6.45" fill="#e2e2e2" stroke="#fff" stroke-width="15" stroke-linecap="round" stroke-linejoin="bevel"/></g><g transform="translate(36.632 -242.518)"><circle cx="913.218" cy="259.573" r="110.576" fill="#53656b" fill-rule="evenodd" stroke="#fff" stroke-width="20" stroke-linecap="round" stroke-linejoin="bevel"/><path style="line-height:normal;font-variant-ligatures:normal;font-variant-position:normal;font-variant-caps:normal;font-variant-numeric:normal;font-variant-alternates:normal;font-variant-east-asian:normal;font-feature-settings:normal;font-variation-settings:normal;text-indent:0;text-align:start;text-decoration-line:none;text-decoration-style:solid;text-decoration-color:#000;text-transform:none;text-orientation:mixed;white-space:normal;shape-padding:0;shape-margin:0;inline-size:0;isolation:auto;mix-blend-mode:normal;solid-color:#000;solid-opacity:1" d="M946.856 190.456a7.875 7.875 0 00-7.875 7.874v122.484a7.875 7.875 0 0015.75 0V264.89c4.349 0 5.096-3.526 5.096-7.875 0-7.687-2.883-66.558-12.971-66.558zM871.857 193.128a5.25 5.25 0 00-5.249 5.25v27.752c0 12.098 6.746 29.961 16.8 32.936a7.82 7.82 0 00-.023.61v61.138a7.875 7.875 0 1015.749 0v-61.138c0-.204-.008-.407-.024-.61 10.054-2.975 16.8-20.838 16.8-32.936v-27.752a5.25 5.25 0 00-10.499 0v34.688a4.45 4.45 0 01-8.9 0v-34.688a5.25 5.25 0 00-10.5 0v34.688a4.45 4.45 0 01-8.901 0v-34.688c0-2.9-2.35-5.25-5.25-5.25z" color="#000" font-weight="400" font-family="sans-serif" overflow="visible" fill="#fff"/></g><g><circle cx="265.926" cy="334.046" r="110.576" fill="#53656b" fill-rule="evenodd" stroke="#fff" stroke-width="20" stroke-linecap="round" stroke-linejoin="bevel"/><path d="M204.769 287.499h17.03l15.946 69.323h70.823l11.978-51.675H258.33" fill="none" stroke="#fff" stroke-width="15" stroke-linecap="round" stroke-linejoin="round"/><circle cx="247.546" cy="385.954" r="15.111" fill="#fff" fill-rule="evenodd"/><circle cx="299.589" cy="385.954" r="15.111" fill="#fff" fill-rule="evenodd"/></g><g transform="translate(-2271.86 -483.818)" stroke="#fff" stroke-linecap="round"><circle cx="319.488" cy="-295.951" r="110.576" fill="#53656b" fill-rule="evenodd" stroke-width="20" stroke-linejoin="bevel"/><path d="M364.081-271.483l24.746-24.469-24.746-24.467M388.827-295.952h-63.03" fill="none" stroke-width="15" stroke-linejoin="bevel"/><path d="M349.081-351.383h-68.517v110.863h68.517" fill="none" stroke-width="15" stroke-linejoin="round"/></g><g transform="translate(-2275.174 -483.818)" stroke="#fff" stroke-linecap="round"><circle cx="664.764" cy="-295.951" r="110.576" fill="#53656b" fill-rule="evenodd" stroke-width="20" stroke-linejoin="bevel"/><path d="M640.168-271.483l24.745-24.469-24.745-24.467M664.913-295.952h-63.03" fill="none" stroke-width="15" stroke-linejoin="bevel"/><path d="M641.629-351.383h68.517v110.863h-68.517" fill="none" stroke-width="15" stroke-linejoin="round"/></g><g transform="translate(-2271.867 -483.818)"><circle cx="1003.418" cy="-295.951" r="110.576" fill="#53656b" fill-rule="evenodd" stroke="#fff" stroke-width="20" stroke-linecap="round" stroke-linejoin="bevel"/><path d="M1012.594-350.527h-68.517v110.863h68.517" fill="none" stroke="#fff" stroke-width="15" stroke-linecap="round" stroke-linejoin="round"/><path d="M1077.095-338.993c0 8.346-6.765 15.111-15.11 15.111-8.346 0-15.111-6.765-15.111-15.11 0-8.346 6.765-15.112 15.11-15.112 8.346 0 15.111 6.766 15.111 15.111zM1015.793-331.26h-.157a7.5 7.5 0 00-4.514 1.597l-15.674 12.292a7.5 7.5 0 009.256 11.802l13.636-10.691h6.506l-21.184 35.205H985.97a7.5 7.5 0 100 15h20.793c3.176-.135 6.464-1.594 7.873-3.957l5.728-10.06 13.54 16.19-.073 17.038a7.5 7.5 0 1015 .062l.084-19.765c.007-1.727-.84-3.635-1.746-4.854l-7.217-8.63 10.62-16.497 4.455 7.369.005.008.04.065a7.5 7.5 0 009.712 2.857l13.188-6.451a7.5 7.5 0 00-6.59-13.475l-7.025 3.437-8.085-13.373c-2.358-4.971-7.368-8.624-11.438-12.569-.886-.858-1.865-1.477-2.89-1.867a7.5 7.5 0 00-3.234-.733h-22.918z" fill="#fff" fill-rule="evenodd"/></g></g></svg>