<svg xmlns="http://www.w3.org/2000/svg" width="911.437" height="911.437" viewBox="0 0 241.151 241.151"><g transform="translate(1194.883 -36.211)"><rect width="1178.667" height="1048.657" x="-486.985" y="-431.547" rx="1.875" ry="1.875" fill="#e2e2e2" fill-rule="evenodd"/><circle cx="-376.41" cy="259.573" r="110.576" fill="#53656b" fill-rule="evenodd" stroke="#fff" stroke-width="20" stroke-linecap="round" stroke-linejoin="bevel"/><g transform="matrix(.8148 0 0 .8148 916.94 732.81)" fill="#fff" stroke-width="1.227" fill-rule="evenodd"><circle cx="-1645.733" cy="-643.032" r="18.545"/><path d="M-1653.484-618.609a14.813 14.813 0 00-14.846 14.846v39.387a8.324 8.324 0 008.343 8.342h3.198v50.197a6.022 6.022 0 006.036 6.035h12.372a6.022 6.022 0 006.035-6.035v-50.197h3.199a8.324 8.324 0 008.342-8.342v-39.387a14.814 14.814 0 00-14.846-14.846z"/></g><g transform="matrix(.8148 0 0 .8148 944.739 732.81)" fill="#fff" stroke-width="1.227" fill-rule="evenodd"><circle cx="-1562.338" cy="-643.245" r="18.545"/><path d="M-1570.088-618.82a14.813 14.813 0 00-14.846 14.845v31.258l-12.592 23.493a4.91 4.91 0 004.328 7.23h19.805v35.944a6.022 6.022 0 006.036 6.036h12.372a6.022 6.022 0 006.035-6.036v-35.945h19.806a4.91 4.91 0 004.327-7.229l-12.592-23.493V-603.974a14.814 14.814 0 00-14.847-14.847z"/></g><path d="M-375.19 201.245V317.9" fill="#e2e2e2" stroke="#fff" stroke-width="15" stroke-linecap="round" stroke-linejoin="bevel"/><circle cx="68.901" cy="-84.646" r="110.576" fill="#53656b" fill-rule="evenodd" stroke="#fff" stroke-width="20" stroke-linecap="round" stroke-linejoin="bevel"/><g fill="#fff" color="#000" font-weight="400" font-family="sans-serif" fill-rule="evenodd" paint-order="stroke markers fill"><path style="line-height:normal;font-variant-ligatures:normal;font-variant-position:normal;font-variant-caps:normal;font-variant-numeric:normal;font-variant-alternates:normal;font-variant-east-asian:normal;font-feature-settings:normal;font-variation-settings:normal;text-indent:0;text-align:start;text-decoration-line:none;text-decoration-style:solid;text-decoration-color:#000;text-transform:none;text-orientation:mixed;white-space:normal;shape-padding:0;shape-margin:0;inline-size:0;isolation:auto;mix-blend-mode:normal;solid-color:#000;solid-opacity:1" d="M89.558-136.82c-1.665 0-3.082 1.42-3.082 3.084v21.754H64.722c-1.665 0-3.084 1.417-3.084 3.082v21.754H39.884c-1.665 0-3.082 1.418-3.082 3.084v21.753H15.046c-1.665 0-3.082 1.418-3.082 3.083v23.671c0 1.665 1.417 3.084 3.082 3.084h98.184c1.664 0 3.084-1.419 3.084-3.084v-98.181c0-1.665-1.42-3.084-3.084-3.084z" overflow="visible"/><path style="line-height:normal;font-variant-ligatures:normal;font-variant-position:normal;font-variant-caps:normal;font-variant-numeric:normal;font-variant-alternates:normal;font-variant-east-asian:normal;font-feature-settings:normal;font-variation-settings:normal;text-indent:0;text-align:start;text-decoration-line:none;text-decoration-style:solid;text-decoration-color:#000;text-transform:none;text-orientation:mixed;white-space:normal;shape-padding:0;shape-margin:0;inline-size:0;isolation:auto;mix-blend-mode:normal;solid-color:#000;solid-opacity:1" d="M89.559-134.32a.582.582 0 00-.583.583v24.254H64.72a.582.582 0 00-.582.583v24.255H39.884a.582.582 0 00-.583.582v24.255H15.047a.581.581 0 00-.583.582v23.672c0 .323.26.583.583.583h98.183c.323 0 .583-.26.583-.583v-98.183a.582.582 0 00-.583-.583z" overflow="visible"/></g><circle cx="-81.128" cy="259.573" r="110.576" fill="#53656b" fill-rule="evenodd" stroke="#fff" stroke-width="20" stroke-linecap="round" stroke-linejoin="bevel"/><g transform="matrix(.8148 0 0 .8148 1238.064 732.81)" fill="#fff" stroke-width="1.227" fill-rule="evenodd"><circle cx="-1645.733" cy="-643.032" r="18.545"/><path d="M-1653.484-618.609a14.813 14.813 0 00-14.846 14.846v39.387a8.324 8.324 0 008.343 8.342h3.198v50.197a6.022 6.022 0 006.036 6.035h12.372a6.022 6.022 0 006.035-6.035v-50.197h3.199a8.324 8.324 0 008.342-8.342v-39.387a14.814 14.814 0 00-14.846-14.846z"/></g><path d="M-54.066 201.245V317.9" fill="#e2e2e2" stroke="#fff" stroke-width="15" stroke-linecap="round" stroke-linejoin="bevel"/><circle cx="217.519" cy="259.573" r="110.576" fill="#53656b" fill-rule="evenodd" stroke="#fff" stroke-width="20" stroke-linecap="round" stroke-linejoin="bevel"/><path d="M244.58 201.245V317.9" fill="#e2e2e2" stroke="#fff" stroke-width="15" stroke-linecap="round" stroke-linejoin="bevel"/><g transform="matrix(.8148 0 0 .8148 1468.76 732.982)" fill="#fff" stroke-width="1.227" fill-rule="evenodd"><circle cx="-1562.338" cy="-643.245" r="18.545"/><path d="M-1570.088-618.82a14.813 14.813 0 00-14.846 14.845v31.258l-12.592 23.493a4.91 4.91 0 004.328 7.23h19.805v35.944a6.022 6.022 0 006.036 6.036h12.372a6.022 6.022 0 006.035-6.036v-35.945h19.806a4.91 4.91 0 004.327-7.229l-12.592-23.493V-603.974a14.814 14.814 0 00-14.847-14.847z"/></g><circle cx="-249.774" cy="-79.271" r="110.576" fill="#53656b" fill-rule="evenodd" stroke="#fff" stroke-width="20" stroke-linecap="round" stroke-linejoin="bevel"/><path d="M-310.635-62.27l24.469 24.746 24.467-24.745M-286.166-37.524v-83.493M-237.475-96.272l24.468-24.745 24.468 24.745M-213.007-121.017v83.493" fill="none" stroke="#fff" stroke-width="15" stroke-linecap="round" stroke-linejoin="bevel"/><circle cx="68.901" cy="-84.646" r="110.576" fill="#53656b" fill-rule="evenodd" stroke="#fff" stroke-width="20" stroke-linecap="round" stroke-linejoin="bevel"/><g fill="#fff" color="#000" font-weight="400" font-family="sans-serif" fill-rule="evenodd" paint-order="stroke markers fill"><path style="line-height:normal;font-variant-ligatures:normal;font-variant-position:normal;font-variant-caps:normal;font-variant-numeric:normal;font-variant-alternates:normal;font-variant-east-asian:normal;font-feature-settings:normal;font-variation-settings:normal;text-indent:0;text-align:start;text-decoration-line:none;text-decoration-style:solid;text-decoration-color:#000;text-transform:none;text-orientation:mixed;white-space:normal;shape-padding:0;shape-margin:0;inline-size:0;isolation:auto;mix-blend-mode:normal;solid-color:#000;solid-opacity:1" d="M89.558-136.82c-1.665 0-3.082 1.42-3.082 3.084v21.754H64.722c-1.665 0-3.084 1.417-3.084 3.082v21.754H39.884c-1.665 0-3.082 1.418-3.082 3.084v21.753H15.046c-1.665 0-3.082 1.418-3.082 3.083v23.671c0 1.665 1.417 3.084 3.082 3.084h98.184c1.664 0 3.084-1.419 3.084-3.084v-98.181c0-1.665-1.42-3.084-3.084-3.084z" overflow="visible"/><path style="line-height:normal;font-variant-ligatures:normal;font-variant-position:normal;font-variant-caps:normal;font-variant-numeric:normal;font-variant-alternates:normal;font-variant-east-asian:normal;font-feature-settings:normal;font-variation-settings:normal;text-indent:0;text-align:start;text-decoration-line:none;text-decoration-style:solid;text-decoration-color:#000;text-transform:none;text-orientation:mixed;white-space:normal;shape-padding:0;shape-margin:0;inline-size:0;isolation:auto;mix-blend-mode:normal;solid-color:#000;solid-opacity:1" d="M89.559-134.32a.582.582 0 00-.583.583v24.254H64.72a.582.582 0 00-.582.583v24.255H39.884a.582.582 0 00-.583.582v24.255H15.047a.581.581 0 00-.583.582v23.672c0 .323.26.583.583.583h98.183c.323 0 .583-.26.583-.583v-98.183a.582.582 0 00-.583-.583z" overflow="visible"/></g><circle cx="-1074.307" cy="156.787" r="110.576" fill="#53656b" fill-rule="evenodd" stroke="#fff" stroke-width="20" stroke-linecap="round" stroke-linejoin="bevel"/><g transform="matrix(.8148 0 0 .8148 219.043 630.023)" fill="#fff" stroke-width="1.227" fill-rule="evenodd"><circle cx="-1645.733" cy="-643.032" r="18.545"/><path d="M-1653.484-618.609a14.813 14.813 0 00-14.846 14.846v39.387a8.324 8.324 0 008.343 8.342h3.198v50.197a6.022 6.022 0 006.036 6.035h12.372a6.022 6.022 0 006.035-6.035v-50.197h3.199a8.324 8.324 0 008.342-8.342v-39.387a14.814 14.814 0 00-14.846-14.846z"/></g><g transform="matrix(.8148 0 0 .8148 246.841 630.023)" fill="#fff" stroke-width="1.227" fill-rule="evenodd"><circle cx="-1562.338" cy="-643.245" r="18.545"/><path d="M-1570.088-618.82a14.813 14.813 0 00-14.846 14.845v31.258l-12.592 23.493a4.91 4.91 0 004.328 7.23h19.805v35.944a6.022 6.022 0 006.036 6.036h12.372a6.022 6.022 0 006.035-6.036v-35.945h19.806a4.91 4.91 0 004.327-7.229l-12.592-23.493V-603.974a14.814 14.814 0 00-14.847-14.847z"/></g><path d="M-1073.087 98.459v116.656" fill="#e2e2e2" stroke="#fff" stroke-width="15" stroke-linecap="round" stroke-linejoin="bevel"/></g></svg>