<?xml version="1.0" encoding="UTF-8" standalone="no"?>
<?xml version="1.0" encoding="utf-8"?><!-- Generator: Adobe Illustrator 18.0.0, SVG Export Plug-In . SVG Version: 6.00 Build 0)  -->

<svg
   version="1.1"
   id="Layer_1"
   x="0px"
   y="0px"
   viewBox="0 0 480 640"
   enable-background="new 0 0 365 560"
   xml:space="preserve"
   sodipodi:docname="marker.svg"
   inkscape:version="1.2.1 (9c6d41e410, 2022-07-14)"
   width="480"
   height="640"
   xmlns:inkscape="http://www.inkscape.org/namespaces/inkscape"
   xmlns:sodipodi="http://sodipodi.sourceforge.net/DTD/sodipodi-0.dtd"
   xmlns="http://www.w3.org/2000/svg"
   xmlns:svg="http://www.w3.org/2000/svg"><defs
   id="defs12944" /><sodipodi:namedview
   id="namedview12942"
   pagecolor="#ffffff"
   bordercolor="#000000"
   borderopacity="0.25"
   inkscape:showpageshadow="2"
   inkscape:pageopacity="0.0"
   inkscape:pagecheckerboard="0"
   inkscape:deskcolor="#d1d1d1"
   showgrid="false"
   inkscape:zoom="0.71785715"
   inkscape:cx="498.00995"
   inkscape:cy="375.42288"
   inkscape:window-width="1920"
   inkscape:window-height="991"
   inkscape:window-x="-9"
   inkscape:window-y="-9"
   inkscape:window-maximized="1"
   inkscape:current-layer="Layer_1"
   showguides="true"><sodipodi:guide
     position="240.99502,447.7612"
     orientation="1,0"
     id="guide18777"
     inkscape:locked="false" /><sodipodi:guide
     position="-234.02985,315.42289"
     orientation="0,-1"
     id="guide18779"
     inkscape:locked="false" /></sodipodi:namedview>
<g
   id="g12939"
   transform="matrix(0.62870936,0,0,0.59050969,124.78468,-2.8469243)"
   style="fill:#ff0000">
	<path
   fill="#00aeef"
   d="m 182.9,551.7 c 0,0.1 0.2,0.3 0.2,0.3 0,0 175.2,-269 175.2,-357.4 C 358.3,64.5 269.5,7.9 182.9,7.7 96.3,7.9 7.5,64.5 7.5,194.6 7.5,283 182.8,552 182.8,552 c 0,0 0.1,-0.3 0.1,-0.3 z M 122.2,187.2 c 0,-33.6 27.2,-60.8 60.8,-60.8 33.6,0 60.8,27.2 60.8,60.8 0,33.6 -27.3,60.8 -60.9,60.8 -33.5,0 -60.7,-27.2 -60.7,-60.8 z"
   id="path12937"
   style="fill:#ff0000" />
</g>
</svg>
